STARTFONT 2.1
FONT -Deviation--18-180-75-75
SIZE 18 75 75
FONTBOUNDINGBOX 12 18 0 -2
STARTPROPERTIES 8
FONT_NAME "Deviation"
FONT_ASCENT 16
FONT_DESCENT 2
PIXEL_SIZE 18
POINT_SIZE 180
RESOLUTION_X 75
RESOLUTION_Y 75
RESOLUTION 75
ENDPROPERTIES
CHARS 202
STARTCHAR U+0087
ENCODING 135
SWIDTH 500 0
DWIDTH 0 0
BBX 12 18 0 -2
BITMAP
0000
0000
3c00
4200
b900
a500
b900
a500
a500
4200
3c00
0000
0000
0000
0000
0000
0000
0000
ENDCHAR
STARTCHAR U+0034
ENCODING 52
SWIDTH 500 0
DWIDTH 0 0
BBX 12 18 0 -2
BITMAP
0000
0000
0000
0000
0180
0380
0780
0f80
1d80
3980
3180
3180
3fc0
3fc0
0180
0180
0000
0000
ENDCHAR
STARTCHAR U+0028
ENCODING 40
SWIDTH 500 0
DWIDTH 0 0
BBX 12 18 0 -2
BITMAP
0000
0000
0000
0000
00c0
01c0
0380
0300
0600
0600
0600
0600
0300
0380
01c0
00c0
0000
0000
ENDCHAR
STARTCHAR U+0077
ENCODING 119
SWIDTH 500 0
DWIDTH 0 0
BBX 12 18 0 -2
BITMAP
0000
0000
0000
0000
0000
0000
0000
36c0
36c0
36c0
36c0
36c0
36c0
3fc0
1f80
0900
0000
0000
ENDCHAR
STARTCHAR U+0091
ENCODING 145
SWIDTH 500 0
DWIDTH 0 0
BBX 12 18 0 -2
BITMAP
0000
0000
f1c0
1980
0940
0820
0820
fc20
0620
0240
0280
0200
0200
0200
0600
fc00
0000
0000
ENDCHAR
STARTCHAR U+0031
ENCODING 49
SWIDTH 500 0
DWIDTH 0 0
BBX 12 18 0 -2
BITMAP
0000
0000
0000
0000
0600
0e00
1e00
1e00
0600
0600
0600
0600
0600
0600
1f80
1f80
0000
0000
ENDCHAR
STARTCHAR U+008f
ENCODING 143
SWIDTH 500 0
DWIDTH 0 0
BBX 12 18 0 -2
BITMAP
0000
1000
2000
4000
8000
e000
ffc0
0060
ffa0
00a0
00a0
00a0
00a0
ffa0
0060
ffc0
0000
0000
ENDCHAR
STARTCHAR U+0065
ENCODING 101
SWIDTH 500 0
DWIDTH 0 0
BBX 12 18 0 -2
BITMAP
0000
0000
0000
0000
0000
0000
0000
0f00
1f80
39c0
30c0
3fc0
3000
39c0
1f80
0f00
0000
0000
ENDCHAR
STARTCHAR U+00be
ENCODING 190
SWIDTH 500 0
DWIDTH 0 0
BBX 12 18 0 -2
BITMAP
0000
1980
1980
0000
0600
0f00
1f80
39c0
30c0
30c0
3fc0
3fc0
30c0
30c0
30c0
30c0
0000
0000
ENDCHAR
STARTCHAR U+0032
ENCODING 50
SWIDTH 500 0
DWIDTH 0 0
BBX 12 18 0 -2
BITMAP
0000
0000
0000
0000
0f00
1f80
39c0
30c0
01c0
0380
0700
0e00
1c00
3800
3fc0
3fc0
0000
0000
ENDCHAR
STARTCHAR U+0089
ENCODING 137
SWIDTH 500 0
DWIDTH 0 0
BBX 12 18 0 -2
BITMAP
0000
0000
3000
4800
4800
3000
0000
0000
0000
0000
0000
0000
0000
0000
0000
0000
0000
0000
ENDCHAR
STARTCHAR U+00a8
ENCODING 168
SWIDTH 500 0
DWIDTH 0 0
BBX 12 18 0 -2
BITMAP
0000
0000
0cc0
3fc0
3300
0000
0000
0f00
1f80
39c0
30c0
30c0
30c0
39c0
1f80
0f00
0000
0000
ENDCHAR
STARTCHAR U+0035
ENCODING 53
SWIDTH 500 0
DWIDTH 0 0
BBX 12 18 0 -2
BITMAP
0000
0000
0000
0000
3fc0
3fc0
3000
3000
3f00
3f80
01c0
00c0
00c0
31c0
3f80
1f00
0000
0000
ENDCHAR
STARTCHAR U+000a
ENCODING 10
SWIDTH 500 0
DWIDTH 0 0
BBX 12 18 0 -2
BITMAP
0000
0000
01f0
0100
1ff0
3ff0
7100
6100
6100
61f0
6000
6000
6000
7000
3ff0
1ff0
0000
0000
ENDCHAR
STARTCHAR U+00ad
ENCODING 173
SWIDTH 500 0
DWIDTH 0 0
BBX 12 18 0 -2
BITMAP
0000
0000
0000
1980
1980
0000
0000
0f00
1f80
39c0
30c0
30c0
30c0
39c0
1f80
0f00
0000
0000
ENDCHAR
STARTCHAR U+005d
ENCODING 93
SWIDTH 500 0
DWIDTH 0 0
BBX 12 18 0 -2
BITMAP
0000
0000
0000
07e0
07e0
0060
0060
0060
0060
0060
0060
0060
0060
0060
0060
07e0
07e0
0000
ENDCHAR
STARTCHAR U+00bf
ENCODING 191
SWIDTH 500 0
DWIDTH 0 0
BBX 12 18 0 -2
BITMAP
0000
1980
1980
0000
3fc0
3fc0
3000
3000
3000
3f80
3f80
3000
3000
3000
3fc0
3fc0
0000
0000
ENDCHAR
STARTCHAR U+006a
ENCODING 106
SWIDTH 500 0
DWIDTH 0 0
BBX 12 18 0 -2
BITMAP
0000
0000
0000
0000
0180
0180
0000
0380
0180
0180
0180
0180
0180
3180
3b80
1f00
0e00
0000
ENDCHAR
STARTCHAR U+00b8
ENCODING 184
SWIDTH 500 0
DWIDTH 0 0
BBX 12 18 0 -2
BITMAP
0600
0f00
1980
0000
30c0
30c0
30c0
30c0
30c0
30c0
30c0
30c0
30c0
39c0
1f80
0f00
0000
0000
ENDCHAR
STARTCHAR U+0039
ENCODING 57
SWIDTH 500 0
DWIDTH 0 0
BBX 12 18 0 -2
BITMAP
0000
0000
0000
0000
0f00
1f80
39c0
30c0
30c0
39c0
1fc0
0fc0
00c0
31c0
1f80
0f00
0000
0000
ENDCHAR
STARTCHAR U+00c6
ENCODING 198
SWIDTH 500 0
DWIDTH 0 0
BBX 12 18 0 -2
BITMAP
0780
0e00
1800
0000
0f00
1f80
39c0
30c0
30c0
30c0
30c0
30c0
30c0
39c0
1f80
0f00
0000
0000
ENDCHAR
STARTCHAR U+00c0
ENCODING 192
SWIDTH 500 0
DWIDTH 0 0
BBX 12 18 0 -2
BITMAP
0000
1980
1980
0000
1f80
1f80
0600
0600
0600
0600
0600
0600
0600
0600
1f80
1f80
0000
0000
ENDCHAR
STARTCHAR U+0041
ENCODING 65
SWIDTH 500 0
DWIDTH 0 0
BBX 12 18 0 -2
BITMAP
0000
0000
0000
0000
0600
0f00
1f80
39c0
30c0
30c0
3fc0
3fc0
30c0
30c0
30c0
30c0
0000
0000
ENDCHAR
STARTCHAR U+0000
ENCODING 0
SWIDTH 500 0
DWIDTH 0 0
BBX 12 18 0 -2
BITMAP
0000
0000
0000
0000
0000
0000
0000
0000
0600
0600
0000
0000
0000
0000
0000
0000
0000
0000
ENDCHAR
STARTCHAR U+0076
ENCODING 118
SWIDTH 500 0
DWIDTH 0 0
BBX 12 18 0 -2
BITMAP
0000
0000
0000
0000
0000
0000
0000
30c0
30c0
30c0
1980
1980
0f00
0f00
0600
0600
0000
0000
ENDCHAR
STARTCHAR U+0099
ENCODING 153
SWIDTH 500 0
DWIDTH 0 0
BBX 12 18 0 -2
BITMAP
0000
0000
fff0
0000
0000
0000
0000
0000
0000
0000
0000
0000
0000
0000
0000
fff0
0000
0000
ENDCHAR
STARTCHAR U+009a
ENCODING 154
SWIDTH 500 0
DWIDTH 0 0
BBX 12 18 0 -2
BITMAP
0000
0000
e000
2000
2000
2000
2000
2000
2000
2000
2000
2000
2000
2000
2000
e000
0000
0000
ENDCHAR
STARTCHAR U+00a4
ENCODING 164
SWIDTH 500 0
DWIDTH 0 0
BBX 12 18 0 -2
BITMAP
0000
0000
0600
0f00
1980
0000
0000
30c0
30c0
30c0
30c0
30c0
30c0
39c0
1fc0
0ec0
0000
0000
ENDCHAR
STARTCHAR U+001d
ENCODING 29
SWIDTH 500 0
DWIDTH 0 0
BBX 12 18 0 -2
BITMAP
0000
0000
0000
0000
0000
0000
0200
0700
0f80
1fc0
3fe0
7ff0
7ff0
0000
0000
0000
0000
0000
ENDCHAR
STARTCHAR U+000c
ENCODING 12
SWIDTH 500 0
DWIDTH 0 0
BBX 12 18 0 -2
BITMAP
0000
0000
1ff0
3ff0
7000
6000
60f0
6080
6080
6080
6080
60f0
6000
7000
3ff0
1ff0
0000
0000
ENDCHAR
STARTCHAR U+000d
ENCODING 13
SWIDTH 500 0
DWIDTH 0 0
BBX 12 18 0 -2
BITMAP
0000
0000
f800
fc00
0e00
0600
ffe0
0620
0620
0620
0620
ffe0
0600
0e00
fc00
f800
0000
0000
ENDCHAR
STARTCHAR U+0054
ENCODING 84
SWIDTH 500 0
DWIDTH 0 0
BBX 12 18 0 -2
BITMAP
0000
0000
0000
0000
3fc0
3fc0
0600
0600
0600
0600
0600
0600
0600
0600
0600
0600
0000
0000
ENDCHAR
STARTCHAR U+0056
ENCODING 86
SWIDTH 500 0
DWIDTH 0 0
BBX 12 18 0 -2
BITMAP
0000
0000
0000
0000
30c0
30c0
30c0
30c0
30c0
30c0
1980
1980
0f00
0f00
0600
0600
0000
0000
ENDCHAR
STARTCHAR U+008b
ENCODING 139
SWIDTH 500 0
DWIDTH 0 0
BBX 12 18 0 -2
BITMAP
0000
0000
0fc0
1fe0
1c60
1800
1800
1f80
7fc0
7cc0
1800
1800
1800
5800
7fe0
7fe0
0000
0000
ENDCHAR
STARTCHAR U+0086
ENCODING 134
SWIDTH 500 0
DWIDTH 0 0
BBX 12 18 0 -2
BITMAP
0000
0000
0000
0000
0000
0000
0000
0000
1800
3c20
7e60
67e0
43c0
0180
0000
0000
0000
0000
ENDCHAR
STARTCHAR U+0071
ENCODING 113
SWIDTH 500 0
DWIDTH 0 0
BBX 12 18 0 -2
BITMAP
0000
0000
0000
0000
0000
0000
0000
0ec0
1fc0
39c0
30c0
39c0
1fc0
0ec0
00c0
00c0
00c0
0000
ENDCHAR
STARTCHAR U+008d
ENCODING 141
SWIDTH 500 0
DWIDTH 0 0
BBX 12 18 0 -2
BITMAP
0000
0000
ff80
ffc0
0060
0760
f360
1560
1060
1060
1560
f360
0760
0060
ffc0
ff80
0000
0000
ENDCHAR
STARTCHAR U+0001
ENCODING 1
SWIDTH 500 0
DWIDTH 0 0
BBX 12 18 0 -2
BITMAP
0000
0000
0000
0000
0000
0000
0000
0000
6660
6660
0000
0000
0000
0000
0000
0000
0000
0000
ENDCHAR
STARTCHAR U+0093
ENCODING 147
SWIDTH 500 0
DWIDTH 0 0
BBX 12 18 0 -2
BITMAP
0000
0000
ff80
ffc0
00c0
9cc0
52c0
52c0
12c0
92c0
52c0
52c0
9cc0
00c0
ffc0
ff80
0000
0000
ENDCHAR
STARTCHAR U+000b
ENCODING 11
SWIDTH 500 0
DWIDTH 0 0
BBX 12 18 0 -2
BITMAP
0000
0000
f800
0800
ff80
ffc0
08e0
0860
0860
f860
0060
0060
0060
00e0
ffc0
ff80
0000
0000
ENDCHAR
STARTCHAR U+0042
ENCODING 66
SWIDTH 500 0
DWIDTH 0 0
BBX 12 18 0 -2
BITMAP
0000
0000
0000
0000
3f00
3f80
31c0
30c0
31c0
3f80
3f80
31c0
30c0
31c0
3f80
3f00
0000
0000
ENDCHAR
STARTCHAR U+0026
ENCODING 38
SWIDTH 500 0
DWIDTH 0 0
BBX 12 18 0 -2
BITMAP
0000
0000
0e00
1f00
3180
3180
3180
1b00
0e60
1cc0
36c0
6380
6180
6380
3f40
1e60
0000
0000
ENDCHAR
STARTCHAR U+0097
ENCODING 151
SWIDTH 500 0
DWIDTH 0 0
BBX 12 18 0 -2
BITMAP
0000
0000
fff0
0000
fff0
fff0
fff0
fff0
fff0
fff0
fff0
fff0
fff0
fff0
0000
fff0
0000
0000
ENDCHAR
STARTCHAR U+00c8
ENCODING 200
SWIDTH 500 0
DWIDTH 0 0
BBX 12 18 0 -2
BITMAP
0000
0000
0600
0900
0600
0000
0000
1f80
1fc0
00c0
1ec0
3fc0
31c0
31c0
3fc0
1ec0
0000
0000
ENDCHAR
STARTCHAR U+00bc
ENCODING 188
SWIDTH 500 0
DWIDTH 0 0
BBX 12 18 0 -2
BITMAP
0cc0
3fc0
3300
0000
0f00
1f80
39c0
30c0
30c0
30c0
30c0
30c0
30c0
39c0
1f80
0f00
0000
0000
ENDCHAR
STARTCHAR U+00c7
ENCODING 199
SWIDTH 500 0
DWIDTH 0 0
BBX 12 18 0 -2
BITMAP
0780
0e00
1800
0000
30c0
30c0
30c0
30c0
30c0
30c0
30c0
30c0
30c0
39c0
1f80
0f00
0000
0000
ENDCHAR
STARTCHAR U+00a3
ENCODING 163
SWIDTH 500 0
DWIDTH 0 0
BBX 12 18 0 -2
BITMAP
0000
0000
0600
0f00
1980
0000
0000
0f00
1f80
39c0
30c0
30c0
30c0
39c0
1f80
0f00
0000
0000
ENDCHAR
STARTCHAR U+0088
ENCODING 136
SWIDTH 500 0
DWIDTH 0 0
BBX 12 18 0 -2
BITMAP
0000
0000
7db0
1150
1150
1110
0000
0000
0000
0000
0000
0000
0000
0000
0000
0000
0000
0000
ENDCHAR
STARTCHAR U+004c
ENCODING 76
SWIDTH 500 0
DWIDTH 0 0
BBX 12 18 0 -2
BITMAP
0000
0000
0000
0000
3000
3000
3000
3000
3000
3000
3000
3000
3000
3000
3fc0
3fc0
0000
0000
ENDCHAR
STARTCHAR U+002f
ENCODING 47
SWIDTH 500 0
DWIDTH 0 0
BBX 12 18 0 -2
BITMAP
0000
0000
0000
0000
0000
0060
00e0
01c0
0380
0700
0e00
1c00
3800
7000
6000
0000
0000
0000
ENDCHAR
STARTCHAR U+00b6
ENCODING 182
SWIDTH 500 0
DWIDTH 0 0
BBX 12 18 0 -2
BITMAP
0600
0f00
1980
0000
1f80
1f80
0600
0600
0600
0600
0600
0600
0600
0600
1f80
1f80
0000
0000
ENDCHAR
STARTCHAR U+00af
ENCODING 175
SWIDTH 500 0
DWIDTH 0 0
BBX 12 18 0 -2
BITMAP
1e00
0700
0180
0000
0600
0f00
1f80
39c0
30c0
30c0
3fc0
3fc0
30c0
30c0
30c0
30c0
0000
0000
ENDCHAR
STARTCHAR U+0052
ENCODING 82
SWIDTH 500 0
DWIDTH 0 0
BBX 12 18 0 -2
BITMAP
0000
0000
0000
0000
3f00
3f80
31c0
30c0
31c0
3f80
3f00
3600
3700
3380
31c0
30c0
0000
0000
ENDCHAR
STARTCHAR U+003b
ENCODING 59
SWIDTH 500 0
DWIDTH 0 0
BBX 12 18 0 -2
BITMAP
0000
0000
0000
0000
0000
0000
0000
0600
0600
0000
0000
0600
0600
0200
0400
0000
0000
0000
ENDCHAR
STARTCHAR U+0078
ENCODING 120
SWIDTH 500 0
DWIDTH 0 0
BBX 12 18 0 -2
BITMAP
0000
0000
0000
0000
0000
0000
0000
30c0
30c0
39c0
1f80
0f00
1f80
39c0
30c0
30c0
0000
0000
ENDCHAR
STARTCHAR U+00c9
ENCODING 201
SWIDTH 500 0
DWIDTH 0 0
BBX 12 18 0 -2
BITMAP
0600
0900
0600
0000
0600
0f00
1f80
39c0
30c0
30c0
3fc0
3fc0
30c0
30c0
30c0
30c0
0000
0000
ENDCHAR
STARTCHAR U+001e
ENCODING 30
SWIDTH 500 0
DWIDTH 0 0
BBX 12 18 0 -2
BITMAP
0000
0000
0000
0000
0000
0000
7ff0
7ff0
3fe0
1fc0
0f80
0700
0200
0000
0000
0000
0000
0000
ENDCHAR
STARTCHAR U+0062
ENCODING 98
SWIDTH 500 0
DWIDTH 0 0
BBX 12 18 0 -2
BITMAP
0000
0000
0000
0000
3000
3000
3000
3700
3f80
39c0
30c0
30c0
30c0
39c0
3f80
3700
0000
0000
ENDCHAR
STARTCHAR U+00c3
ENCODING 195
SWIDTH 500 0
DWIDTH 0 0
BBX 12 18 0 -2
BITMAP
0780
0e00
1800
0000
0600
0f00
1f80
39c0
30c0
30c0
3fc0
3fc0
30c0
30c0
30c0
30c0
0000
0000
ENDCHAR
STARTCHAR U+00c4
ENCODING 196
SWIDTH 500 0
DWIDTH 0 0
BBX 12 18 0 -2
BITMAP
0780
0e00
1800
0000
3fc0
3fc0
3000
3000
3000
3f80
3f80
3000
3000
3000
3fc0
3fc0
0000
0000
ENDCHAR
STARTCHAR U+0060
ENCODING 96
SWIDTH 500 0
DWIDTH 0 0
BBX 12 18 0 -2
BITMAP
0000
0000
0780
0e00
1800
0000
0000
30c0
30c0
30c0
30c0
30c0
30c0
39c0
1fc0
0ec0
0000
0000
ENDCHAR
STARTCHAR U+009b
ENCODING 155
SWIDTH 500 0
DWIDTH 0 0
BBX 12 18 0 -2
BITMAP
0000
0000
1e00
0700
0180
0000
0000
1f80
1fc0
00c0
1ec0
3fc0
31c0
31c0
3fc0
1ec0
0000
0000
ENDCHAR
STARTCHAR U+0006
ENCODING 6
SWIDTH 500 0
DWIDTH 0 0
BBX 12 18 0 -2
BITMAP
0000
0000
1ff0
3ff0
7010
6030
6070
6010
6010
6010
6010
6070
6030
7010
3ff0
1ff0
0000
0000
ENDCHAR
STARTCHAR U+0024
ENCODING 36
SWIDTH 500 0
DWIDTH 0 0
BBX 12 18 0 -2
BITMAP
0000
0000
0600
1f80
3fc0
76e0
6660
7600
3f80
1fc0
06e0
6660
76e0
3fc0
1f80
0600
0000
0000
ENDCHAR
STARTCHAR U+0098
ENCODING 152
SWIDTH 500 0
DWIDTH 0 0
BBX 12 18 0 -2
BITMAP
0000
0000
fff0
0000
fc00
fc00
fc00
fc00
fc00
fc00
fc00
fc00
fc00
fc00
0000
fff0
0000
0000
ENDCHAR
STARTCHAR U+0011
ENCODING 17
SWIDTH 500 0
DWIDTH 0 0
BBX 12 18 0 -2
BITMAP
0000
8000
8000
e200
1400
0800
0400
0400
0380
0380
0400
0400
0800
1400
e200
8000
8000
0000
ENDCHAR
STARTCHAR U+0073
ENCODING 115
SWIDTH 500 0
DWIDTH 0 0
BBX 12 18 0 -2
BITMAP
0000
0000
0000
0000
0000
0000
0000
0f00
1f80
30c0
3000
1f80
00c0
30c0
1f80
0f00
0000
0000
ENDCHAR
STARTCHAR U+0069
ENCODING 105
SWIDTH 500 0
DWIDTH 0 0
BBX 12 18 0 -2
BITMAP
0000
0000
0000
0000
0600
0600
0000
0e00
0600
0600
0600
0600
0600
0600
0600
0600
0000
0000
ENDCHAR
STARTCHAR U+0070
ENCODING 112
SWIDTH 500 0
DWIDTH 0 0
BBX 12 18 0 -2
BITMAP
0000
0000
0000
0000
0000
0000
0000
3700
3f80
39c0
30c0
39c0
3f80
3700
3000
3000
3000
0000
ENDCHAR
STARTCHAR U+007f
ENCODING 127
SWIDTH 500 0
DWIDTH 0 0
BBX 12 18 0 -2
BITMAP
fff0
fff0
fff0
fff0
fff0
fff0
fff0
fff0
fff0
fff0
fff0
fff0
fff0
fff0
fff0
fff0
fff0
fff0
ENDCHAR
STARTCHAR U+0012
ENCODING 18
SWIDTH 500 0
DWIDTH 0 0
BBX 12 18 0 -2
BITMAP
0000
0060
00e0
01a0
0320
0620
0c20
7820
4820
4820
7820
0c20
0620
0320
01a0
00e0
0060
0000
ENDCHAR
STARTCHAR U+0008
ENCODING 8
SWIDTH 500 0
DWIDTH 0 0
BBX 12 18 0 -2
BITMAP
0000
0000
1ff0
3ff0
7000
6000
6400
6c00
7ff0
7ff0
6c00
6400
6000
7000
3ff0
1ff0
0000
0000
ENDCHAR
STARTCHAR U+0009
ENCODING 9
SWIDTH 500 0
DWIDTH 0 0
BBX 12 18 0 -2
BITMAP
0000
0000
ff80
ffc0
00e0
0060
0260
0360
ffe0
ffe0
0360
0260
0060
00e0
ffc0
ff80
0000
0000
ENDCHAR
STARTCHAR U+0030
ENCODING 48
SWIDTH 500 0
DWIDTH 0 0
BBX 12 18 0 -2
BITMAP
0000
0000
0000
0000
0f00
1f80
39c0
30c0
31c0
32c0
34c0
38c0
30c0
39c0
1f80
0f00
0000
0000
ENDCHAR
STARTCHAR U+0046
ENCODING 70
SWIDTH 500 0
DWIDTH 0 0
BBX 12 18 0 -2
BITMAP
0000
0000
0000
0000
3fc0
3fc0
3000
3000
3000
3f80
3f80
3000
3000
3000
3000
3000
0000
0000
ENDCHAR
STARTCHAR U+0094
ENCODING 148
SWIDTH 500 0
DWIDTH 0 0
BBX 12 18 0 -2
BITMAP
0000
0000
1ff0
3ff0
3000
3750
3450
3450
3720
3420
3450
3450
3750
3000
3ff0
1ff0
0000
0000
ENDCHAR
STARTCHAR U+002a
ENCODING 42
SWIDTH 500 0
DWIDTH 0 0
BBX 12 18 0 -2
BITMAP
0000
0000
0780
0e00
1800
0000
0000
1f80
1fc0
00c0
1ec0
3fc0
31c0
31c0
3fc0
1ec0
0000
0000
ENDCHAR
STARTCHAR U+005a
ENCODING 90
SWIDTH 500 0
DWIDTH 0 0
BBX 12 18 0 -2
BITMAP
0000
0000
0000
0000
3fc0
3fc0
00c0
01c0
0380
0700
0e00
1c00
3800
3000
3fc0
3fc0
0000
0000
ENDCHAR
STARTCHAR U+007b
ENCODING 123
SWIDTH 500 0
DWIDTH 0 0
BBX 12 18 0 -2
BITMAP
0000
0000
0000
0000
0000
0000
0000
0f80
1fc0
38c0
3000
3000
3000
38c0
1fc0
0f80
0100
0600
ENDCHAR
STARTCHAR U+0075
ENCODING 117
SWIDTH 500 0
DWIDTH 0 0
BBX 12 18 0 -2
BITMAP
0000
0000
0000
0000
0000
0000
0000
30c0
30c0
30c0
30c0
30c0
30c0
39c0
1fc0
0ec0
0000
0000
ENDCHAR
STARTCHAR U+0045
ENCODING 69
SWIDTH 500 0
DWIDTH 0 0
BBX 12 18 0 -2
BITMAP
0000
0000
0000
0000
3fc0
3fc0
3000
3000
3000
3f80
3f80
3000
3000
3000
3fc0
3fc0
0000
0000
ENDCHAR
STARTCHAR U+0003
ENCODING 3
SWIDTH 500 0
DWIDTH 0 0
BBX 12 18 0 -2
BITMAP
0000
0000
6000
6000
6000
6000
6000
6000
6000
6000
6000
6000
6000
6000
6000
6000
0000
0000
ENDCHAR
STARTCHAR U+00a9
ENCODING 169
SWIDTH 500 0
DWIDTH 0 0
BBX 12 18 0 -2
BITMAP
0000
0000
0cc0
3fc0
3300
0000
0000
30c0
30c0
30c0
30c0
30c0
30c0
39c0
1fc0
0ec0
0000
0000
ENDCHAR
STARTCHAR U+0015
ENCODING 21
SWIDTH 500 0
DWIDTH 0 0
BBX 12 18 0 -2
BITMAP
0000
0000
0600
0600
0600
0600
0600
0600
0600
0600
0600
0600
0600
0600
7fe0
7fe0
0000
0000
ENDCHAR
STARTCHAR U+00ac
ENCODING 172
SWIDTH 500 0
DWIDTH 0 0
BBX 12 18 0 -2
BITMAP
0000
0000
0000
1980
1980
0000
0000
0e00
0600
0600
0600
0600
0600
0600
0600
0600
0000
0000
ENDCHAR
STARTCHAR U+0095
ENCODING 149
SWIDTH 500 0
DWIDTH 0 0
BBX 12 18 0 -2
BITMAP
0000
0000
ffc0
ffe0
0060
7760
2260
2260
2260
2260
2260
2260
7260
0060
ffe0
ffc0
0000
0000
ENDCHAR
STARTCHAR U+006b
ENCODING 107
SWIDTH 500 0
DWIDTH 0 0
BBX 12 18 0 -2
BITMAP
0000
0000
0000
0000
3000
3000
3000
30c0
31c0
3380
3700
3e00
3f00
3b80
31c0
30c0
0000
0000
ENDCHAR
STARTCHAR U+00bd
ENCODING 189
SWIDTH 500 0
DWIDTH 0 0
BBX 12 18 0 -2
BITMAP
0cc0
3fc0
3300
0000
30c0
30c0
30c0
30c0
30c0
30c0
30c0
30c0
30c0
39c0
1f80
0f00
0000
0000
ENDCHAR
STARTCHAR U+0085
ENCODING 133
SWIDTH 500 0
DWIDTH 0 0
BBX 12 18 0 -2
BITMAP
0000
0000
0600
0600
1f80
3fc0
76e0
6600
6600
6600
6600
76e0
3fc0
1f80
0600
0600
0000
0000
ENDCHAR
STARTCHAR U+005f
ENCODING 95
SWIDTH 500 0
DWIDTH 0 0
BBX 12 18 0 -2
BITMAP
0000
0000
0780
0e00
1800
0000
0000
0f00
1f80
39c0
30c0
30c0
30c0
39c0
1f80
0f00
0000
0000
ENDCHAR
STARTCHAR U+0047
ENCODING 71
SWIDTH 500 0
DWIDTH 0 0
BBX 12 18 0 -2
BITMAP
0000
0000
0000
0000
0f00
1f80
39c0
30c0
3000
33c0
33c0
30c0
30c0
39c0
1f80
0f00
0000
0000
ENDCHAR
STARTCHAR U+001f
ENCODING 31
SWIDTH 500 0
DWIDTH 0 0
BBX 12 18 0 -2
BITMAP
0000
0000
6060
70e0
39c0
1f80
7fe0
7fe0
0600
0600
7fe0
7fe0
0600
0600
0600
0600
0000
0000
ENDCHAR
STARTCHAR U+004f
ENCODING 79
SWIDTH 500 0
DWIDTH 0 0
BBX 12 18 0 -2
BITMAP
0000
0000
0000
0000
0f00
1f80
39c0
30c0
30c0
30c0
30c0
30c0
30c0
39c0
1f80
0f00
0000
0000
ENDCHAR
STARTCHAR U+0010
ENCODING 16
SWIDTH 500 0
DWIDTH 0 0
BBX 12 18 0 -2
BITMAP
0000
0010
0010
0470
0280
0100
0200
0200
1c00
1c00
0200
0200
0100
0280
0470
0010
0010
0000
ENDCHAR
STARTCHAR U+0040
ENCODING 64
SWIDTH 500 0
DWIDTH 0 0
BBX 12 18 0 -2
BITMAP
0000
0000
0000
0000
0000
0000
1f80
2040
4320
44a0
48a0
48a0
49a0
46c0
2000
1f80
0000
0000
ENDCHAR
STARTCHAR U+004a
ENCODING 74
SWIDTH 500 0
DWIDTH 0 0
BBX 12 18 0 -2
BITMAP
0000
0000
0000
0000
07c0
07c0
0180
0180
0180
0180
0180
0180
3180
3b80
1f00
0e00
0000
0000
ENDCHAR
STARTCHAR U+00a5
ENCODING 165
SWIDTH 500 0
DWIDTH 0 0
BBX 12 18 0 -2
BITMAP
0000
0000
0cc0
3fc0
3300
0000
0000
1f80
1fc0
00c0
1ec0
3fc0
31c0
31c0
3fc0
1ec0
0000
0000
ENDCHAR
STARTCHAR U+0005
ENCODING 5
SWIDTH 500 0
DWIDTH 0 0
BBX 12 18 0 -2
BITMAP
0000
0000
6600
6600
6600
6600
6600
6600
6660
6660
6600
6600
6600
6600
6600
6600
0000
0000
ENDCHAR
STARTCHAR U+0074
ENCODING 116
SWIDTH 500 0
DWIDTH 0 0
BBX 12 18 0 -2
BITMAP
0000
0000
0000
0000
0600
0600
0600
1f80
1f80
0600
0600
0600
0600
0600
0780
0380
0000
0000
ENDCHAR
STARTCHAR U+005c
ENCODING 92
SWIDTH 500 0
DWIDTH 0 0
BBX 12 18 0 -2
BITMAP
0000
0000
0780
0e00
1800
0000
0000
0f00
1f80
39c0
30c0
3fc0
3000
39c0
1f80
0f00
0000
0000
ENDCHAR
STARTCHAR U+0083
ENCODING 131
SWIDTH 500 0
DWIDTH 0 0
BBX 12 18 0 -2
BITMAP
0000
0000
0000
1980
1980
1100
0880
0000
0000
0000
0000
0000
0000
0000
0000
0000
0000
0000
ENDCHAR
STARTCHAR U+0037
ENCODING 55
SWIDTH 500 0
DWIDTH 0 0
BBX 12 18 0 -2
BITMAP
0000
0000
0000
0000
3fc0
3fc0
00c0
00c0
01c0
0380
0700
0600
0600
0600
0600
0600
0000
0000
ENDCHAR
STARTCHAR U+003f
ENCODING 63
SWIDTH 500 0
DWIDTH 0 0
BBX 12 18 0 -2
BITMAP
0000
0000
0000
0000
0f00
1f80
39c0
30c0
01c0
0380
0700
0600
0600
0000
0600
0600
0000
0000
ENDCHAR
STARTCHAR U+006f
ENCODING 111
SWIDTH 500 0
DWIDTH 0 0
BBX 12 18 0 -2
BITMAP
0000
0000
0000
0000
0000
0000
0000
0f00
1f80
39c0
30c0
30c0
30c0
39c0
1f80
0f00
0000
0000
ENDCHAR
STARTCHAR U+003e
ENCODING 62
SWIDTH 500 0
DWIDTH 0 0
BBX 12 18 0 -2
BITMAP
0000
0000
0000
3000
3800
1c00
0e00
0700
0380
01c0
0380
0700
0e00
1c00
3800
3000
0000
0000
ENDCHAR
STARTCHAR U+00ab
ENCODING 171
SWIDTH 500 0
DWIDTH 0 0
BBX 12 18 0 -2
BITMAP
0000
0000
0000
1980
1980
0000
0000
0f00
1f80
39c0
30c0
3fc0
3000
39c0
1f80
0f00
0000
0000
ENDCHAR
STARTCHAR U+003a
ENCODING 58
SWIDTH 500 0
DWIDTH 0 0
BBX 12 18 0 -2
BITMAP
0000
0000
0000
0000
0000
0000
0000
0600
0600
0000
0000
0600
0600
0000
0000
0000
0000
0000
ENDCHAR
STARTCHAR U+0057
ENCODING 87
SWIDTH 500 0
DWIDTH 0 0
BBX 12 18 0 -2
BITMAP
0000
0000
0000
0000
6660
6660
6660
6660
6660
6660
6660
6660
6660
7fe0
3fc0
1980
0000
0000
ENDCHAR
STARTCHAR U+0059
ENCODING 89
SWIDTH 500 0
DWIDTH 0 0
BBX 12 18 0 -2
BITMAP
0000
0000
0000
0000
30c0
30c0
30c0
30c0
39c0
1f80
0f00
0600
0600
0600
0600
0600
0000
0000
ENDCHAR
STARTCHAR U+00a6
ENCODING 166
SWIDTH 500 0
DWIDTH 0 0
BBX 12 18 0 -2
BITMAP
0000
0000
0cc0
3fc0
3300
0000
0000
0f00
1f80
39c0
30c0
3fc0
3000
39c0
1f80
0f00
0000
0000
ENDCHAR
STARTCHAR U+0018
ENCODING 24
SWIDTH 500 0
DWIDTH 0 0
BBX 12 18 0 -2
BITMAP
0000
0000
ff80
ffc0
00e0
8460
8460
8460
8460
8460
8460
8460
8460
00e0
ffc0
ff80
0000
0000
ENDCHAR
STARTCHAR U+0004
ENCODING 4
SWIDTH 500 0
DWIDTH 0 0
BBX 12 18 0 -2
BITMAP
0000
0000
6660
6660
6660
6660
6660
6660
6660
6660
6660
6660
6660
6660
6660
6660
0000
0000
ENDCHAR
STARTCHAR U+0090
ENCODING 144
SWIDTH 500 0
DWIDTH 0 0
BBX 12 18 0 -2
BITMAP
0000
0000
03f0
0600
0400
0400
0400
04f0
1580
2700
4300
4100
4100
4100
2980
18f0
3800
0000
ENDCHAR
STARTCHAR U+0023
ENCODING 35
SWIDTH 500 0
DWIDTH 0 0
BBX 12 18 0 -2
BITMAP
0000
0000
0000
0180
1980
19e0
1fe0
7f80
7980
19e0
1fe0
7f80
7980
1980
1800
0000
0000
0000
ENDCHAR
STARTCHAR U+004e
ENCODING 78
SWIDTH 500 0
DWIDTH 0 0
BBX 12 18 0 -2
BITMAP
0000
0000
0000
0000
30c0
38c0
38c0
3cc0
3cc0
36c0
36c0
33c0
33c0
31c0
31c0
30c0
0000
0000
ENDCHAR
STARTCHAR U+007d
ENCODING 125
SWIDTH 500 0
DWIDTH 0 0
BBX 12 18 0 -2
BITMAP
0cc0
3fc0
3300
0000
30c0
38c0
38c0
3cc0
3cc0
36c0
36c0
33c0
33c0
31c0
31c0
30c0
0000
0000
ENDCHAR
STARTCHAR U+0002
ENCODING 2
SWIDTH 500 0
DWIDTH 0 0
BBX 12 18 0 -2
BITMAP
0000
0000
6000
6000
6000
6000
6000
6000
6660
6660
6000
6000
6000
6000
6000
6000
0000
0000
ENDCHAR
STARTCHAR U+000e
ENCODING 14
SWIDTH 500 0
DWIDTH 0 0
BBX 12 18 0 -2
BITMAP
0000
0070
01c0
0300
0600
0400
0c00
0800
0800
0800
0800
0c00
0400
0600
0300
01c0
0070
0000
ENDCHAR
STARTCHAR U+0048
ENCODING 72
SWIDTH 500 0
DWIDTH 0 0
BBX 12 18 0 -2
BITMAP
0000
0000
0000
0000
30c0
30c0
30c0
30c0
30c0
3fc0
3fc0
30c0
30c0
30c0
30c0
30c0
0000
0000
ENDCHAR
STARTCHAR U+0029
ENCODING 41
SWIDTH 500 0
DWIDTH 0 0
BBX 12 18 0 -2
BITMAP
0000
0000
0000
0000
3000
3800
1c00
0c00
0600
0600
0600
0600
0c00
1c00
3800
3000
0000
0000
ENDCHAR
STARTCHAR U+00a7
ENCODING 167
SWIDTH 500 0
DWIDTH 0 0
BBX 12 18 0 -2
BITMAP
0000
0000
0cc0
3fc0
3300
0000
0000
0e00
0600
0600
0600
0600
0600
0600
0600
0600
0000
0000
ENDCHAR
STARTCHAR U+0055
ENCODING 85
SWIDTH 500 0
DWIDTH 0 0
BBX 12 18 0 -2
BITMAP
0000
0000
0000
0000
30c0
30c0
30c0
30c0
30c0
30c0
30c0
30c0
30c0
39c0
1f80
0f00
0000
0000
ENDCHAR
STARTCHAR U+00b4
ENCODING 180
SWIDTH 500 0
DWIDTH 0 0
BBX 12 18 0 -2
BITMAP
0600
0f00
1980
0000
0600
0f00
1f80
39c0
30c0
30c0
3fc0
3fc0
30c0
30c0
30c0
30c0
0000
0000
ENDCHAR
STARTCHAR U+00b3
ENCODING 179
SWIDTH 500 0
DWIDTH 0 0
BBX 12 18 0 -2
BITMAP
1e00
0700
0180
0000
30c0
30c0
30c0
30c0
30c0
30c0
30c0
30c0
30c0
39c0
1f80
0f00
0000
0000
ENDCHAR
STARTCHAR U+0019
ENCODING 25
SWIDTH 500 0
DWIDTH 0 0
BBX 12 18 0 -2
BITMAP
0000
0000
1ff0
3ff0
7000
6ff0
6000
6ff0
6000
6000
6ff0
6000
6000
7000
3ff0
1ff0
0000
0000
ENDCHAR
STARTCHAR U+006c
ENCODING 108
SWIDTH 500 0
DWIDTH 0 0
BBX 12 18 0 -2
BITMAP
0000
0000
0000
0000
0e00
0600
0600
0600
0600
0600
0600
0600
0600
0680
0780
0300
0000
0000
ENDCHAR
STARTCHAR U+007e
ENCODING 126
SWIDTH 500 0
DWIDTH 0 0
BBX 12 18 0 -2
BITMAP
0000
0000
0cc0
3fc0
3300
0000
0000
3700
3f80
39c0
30c0
30c0
30c0
30c0
30c0
30c0
0000
0000
ENDCHAR
STARTCHAR U+0014
ENCODING 20
SWIDTH 500 0
DWIDTH 0 0
BBX 12 18 0 -2
BITMAP
0000
0060
00e0
01a0
2310
1620
0840
74a0
4b20
4b20
74a0
0840
1620
2310
01a0
00e0
0060
0000
ENDCHAR
STARTCHAR U+00b2
ENCODING 178
SWIDTH 500 0
DWIDTH 0 0
BBX 12 18 0 -2
BITMAP
1e00
0700
0180
0000
0f00
1f80
39c0
30c0
30c0
30c0
30c0
30c0
30c0
39c0
1f80
0f00
0000
0000
ENDCHAR
STARTCHAR U+001c
ENCODING 28
SWIDTH 500 0
DWIDTH 0 0
BBX 12 18 0 -2
BITMAP
0000
0000
1000
1800
1c00
1e00
1f00
1f80
1fc0
1f80
1f00
1e00
1c00
1800
1000
0000
0000
0000
ENDCHAR
STARTCHAR U+0036
ENCODING 54
SWIDTH 500 0
DWIDTH 0 0
BBX 12 18 0 -2
BITMAP
0000
0000
0000
0000
0f00
1f80
38c0
3000
3700
3f80
39c0
30c0
30c0
39c0
1f80
0f00
0000
0000
ENDCHAR
STARTCHAR U+000f
ENCODING 15
SWIDTH 500 0
DWIDTH 0 0
BBX 12 18 0 -2
BITMAP
0000
e000
f800
fc00
fe00
fe00
ff00
ff00
ff00
ff00
ff00
ff00
fe00
fe00
fc00
f800
e000
0000
ENDCHAR
STARTCHAR U+002c
ENCODING 44
SWIDTH 500 0
DWIDTH 0 0
BBX 12 18 0 -2
BITMAP
0000
0000
0000
0000
0000
0000
0000
0000
0000
0000
0000
0000
0000
0600
0600
0200
0400
0000
ENDCHAR
STARTCHAR U+0072
ENCODING 114
SWIDTH 500 0
DWIDTH 0 0
BBX 12 18 0 -2
BITMAP
0000
0000
0000
0000
0000
0000
0000
3700
3f80
39c0
38c0
3000
3000
3000
3000
3000
0000
0000
ENDCHAR
STARTCHAR U+0020
ENCODING 32
SWIDTH 500 0
DWIDTH 0 0
BBX 12 18 0 -2
BITMAP
0000
0000
0000
0000
0000
0000
0000
0000
0000
0000
0000
0000
0000
0000
0000
0000
0000
0000
ENDCHAR
STARTCHAR U+0050
ENCODING 80
SWIDTH 500 0
DWIDTH 0 0
BBX 12 18 0 -2
BITMAP
0000
0000
0000
0000
3f00
3f80
31c0
30c0
31c0
3f80
3f00
3000
3000
3000
3000
3000
0000
0000
ENDCHAR
STARTCHAR U+004d
ENCODING 77
SWIDTH 500 0
DWIDTH 0 0
BBX 12 18 0 -2
BITMAP
0000
0000
0000
0000
6060
70e0
79e0
7fe0
6f60
6660
6660
6060
6060
6060
6060
6060
0000
0000
ENDCHAR
STARTCHAR U+009f
ENCODING 159
SWIDTH 500 0
DWIDTH 0 0
BBX 12 18 0 -2
BITMAP
0000
0000
1e00
0700
0180
0000
0000
30c0
30c0
30c0
30c0
30c0
30c0
39c0
1fc0
0ec0
0000
0000
ENDCHAR
STARTCHAR U+006d
ENCODING 109
SWIDTH 500 0
DWIDTH 0 0
BBX 12 18 0 -2
BITMAP
0000
0000
0000
0000
0000
0000
0000
3f80
3fc0
36c0
36c0
36c0
36c0
36c0
36c0
36c0
0000
0000
ENDCHAR
STARTCHAR U+0080
ENCODING 128
SWIDTH 500 0
DWIDTH 0 0
BBX 12 18 0 -2
BITMAP
0000
0000
0000
0000
0000
6000
7000
3800
1c00
0e00
0700
0380
01c0
00e0
0060
0000
0000
0000
ENDCHAR
STARTCHAR U+0022
ENCODING 34
SWIDTH 500 0
DWIDTH 0 0
BBX 12 18 0 -2
BITMAP
0000
0000
0000
1980
1980
0880
1100
0000
0000
0000
0000
0000
0000
0000
0000
0000
0000
0000
ENDCHAR
STARTCHAR U+0058
ENCODING 88
SWIDTH 500 0
DWIDTH 0 0
BBX 12 18 0 -2
BITMAP
0000
0000
0000
0000
30c0
30c0
30c0
39c0
1f80
0f00
0f00
1f80
39c0
30c0
30c0
30c0
0000
0000
ENDCHAR
STARTCHAR U+0063
ENCODING 99
SWIDTH 500 0
DWIDTH 0 0
BBX 12 18 0 -2
BITMAP
0000
0000
0000
0000
0000
0000
0000
0f80
1fc0
38c0
3000
3000
3000
38c0
1fc0
0f80
0000
0000
ENDCHAR
STARTCHAR U+0017
ENCODING 23
SWIDTH 500 0
DWIDTH 0 0
BBX 12 18 0 -2
BITMAP
0000
0000
1ff0
3ff0
7000
6480
6480
6480
6480
6480
6480
6480
6480
7000
3ff0
1ff0
0000
0000
ENDCHAR
STARTCHAR U+0044
ENCODING 68
SWIDTH 500 0
DWIDTH 0 0
BBX 12 18 0 -2
BITMAP
0000
0000
0000
0000
3f00
3f80
31c0
30c0
30c0
30c0
30c0
30c0
30c0
31c0
3f80
3f00
0000
0000
ENDCHAR
STARTCHAR U+008e
ENCODING 142
SWIDTH 500 0
DWIDTH 0 0
BBX 12 18 0 -2
BITMAP
0000
0080
0040
0020
0010
0070
3ff0
6000
5ff0
5000
5000
5000
5000
5ff0
6000
3ff0
0000
0000
ENDCHAR
STARTCHAR U+008a
ENCODING 138
SWIDTH 500 0
DWIDTH 0 0
BBX 12 18 0 -2
BITMAP
0000
0000
2000
6000
2020
2040
2080
2100
7200
04c0
0920
1020
2040
4080
0100
01e0
0000
0000
ENDCHAR
STARTCHAR U+0049
ENCODING 73
SWIDTH 500 0
DWIDTH 0 0
BBX 12 18 0 -2
BITMAP
0000
0000
0000
0000
1f80
1f80
0600
0600
0600
0600
0600
0600
0600
0600
1f80
1f80
0000
0000
ENDCHAR
STARTCHAR U+00aa
ENCODING 170
SWIDTH 500 0
DWIDTH 0 0
BBX 12 18 0 -2
BITMAP
0000
0000
0000
1980
1980
0000
0000
1f80
1fc0
00c0
1ec0
3fc0
31c0
31c0
3fc0
1ec0
0000
0000
ENDCHAR
STARTCHAR U+0092
ENCODING 146
SWIDTH 500 0
DWIDTH 0 0
BBX 12 18 0 -2
BITMAP
0000
0000
1ff0
3ff0
3000
3310
34a0
34a0
3490
3480
34a0
34a0
3310
3000
3ff0
1ff0
0000
0000
ENDCHAR
STARTCHAR U+005e
ENCODING 94
SWIDTH 500 0
DWIDTH 0 0
BBX 12 18 0 -2
BITMAP
0000
0000
0780
0e00
1800
0000
0000
0e00
0600
0600
0600
0600
0600
0600
0600
0600
0000
0000
ENDCHAR
STARTCHAR U+001a
ENCODING 26
SWIDTH 500 0
DWIDTH 0 0
BBX 12 18 0 -2
BITMAP
0000
0000
ff80
ffc0
00e0
ff60
0060
ff60
0060
0060
ff60
0060
0060
00e0
ffc0
ff80
0000
0000
ENDCHAR
STARTCHAR U+009c
ENCODING 156
SWIDTH 500 0
DWIDTH 0 0
BBX 12 18 0 -2
BITMAP
0000
0000
1e00
0700
0180
0000
0000
0f00
1f80
39c0
30c0
3fc0
3000
39c0
1f80
0f00
0000
0000
ENDCHAR
STARTCHAR U+0013
ENCODING 19
SWIDTH 500 0
DWIDTH 0 0
BBX 12 18 0 -2
BITMAP
0000
0000
0300
0180
0c80
04c0
2640
3240
1240
1240
3240
2640
04c0
0c80
0180
0300
0000
0000
ENDCHAR
STARTCHAR U+0068
ENCODING 104
SWIDTH 500 0
DWIDTH 0 0
BBX 12 18 0 -2
BITMAP
0000
0000
0000
0000
3000
3000
3000
3300
3780
3dc0
38c0
30c0
30c0
30c0
30c0
30c0
0000
0000
ENDCHAR
STARTCHAR U+0038
ENCODING 56
SWIDTH 500 0
DWIDTH 0 0
BBX 12 18 0 -2
BITMAP
0000
0000
0000
0000
0f00
1f80
39c0
30c0
39c0
1f80
1f80
39c0
30c0
39c0
1f80
0f00
0000
0000
ENDCHAR
STARTCHAR U+003c
ENCODING 60
SWIDTH 500 0
DWIDTH 0 0
BBX 12 18 0 -2
BITMAP
0000
0000
0000
00c0
01c0
0380
0700
0e00
1c00
3800
1c00
0e00
0700
0380
01c0
00c0
0000
0000
ENDCHAR
STARTCHAR U+003d
ENCODING 61
SWIDTH 500 0
DWIDTH 0 0
BBX 12 18 0 -2
BITMAP
0000
0000
0000
0000
0000
0000
0000
3fc0
3fc0
0000
0000
3fc0
3fc0
0000
0000
0000
0000
0000
ENDCHAR
STARTCHAR U+009d
ENCODING 157
SWIDTH 500 0
DWIDTH 0 0
BBX 12 18 0 -2
BITMAP
0000
0000
1e00
0700
0180
0000
0000
0e00
0600
0600
0600
0600
0600
0600
0600
0600
0000
0000
ENDCHAR
STARTCHAR U+0096
ENCODING 150
SWIDTH 500 0
DWIDTH 0 0
BBX 12 18 0 -2
BITMAP
0000
0000
0070
0040
0040
0040
0040
0040
0040
0040
0040
0040
0040
0040
0040
0070
0000
0000
ENDCHAR
STARTCHAR U+007c
ENCODING 124
SWIDTH 500 0
DWIDTH 0 0
BBX 12 18 0 -2
BITMAP
0000
0000
0000
0000
0000
0600
0600
0000
0000
3fc0
3fc0
0000
0000
0600
0600
0000
0000
0000
ENDCHAR
STARTCHAR U+00c2
ENCODING 194
SWIDTH 500 0
DWIDTH 0 0
BBX 12 18 0 -2
BITMAP
0000
1980
1980
0000
30c0
30c0
30c0
30c0
30c0
30c0
30c0
30c0
30c0
39c0
1f80
0f00
0000
0000
ENDCHAR
STARTCHAR U+0084
ENCODING 132
SWIDTH 500 0
DWIDTH 0 0
BBX 12 18 0 -2
BITMAP
0000
0000
0000
0000
0600
0600
0000
0600
0600
0e00
1c00
3800
30c0
39c0
1f80
0f00
0000
0000
ENDCHAR
STARTCHAR U+0081
ENCODING 129
SWIDTH 500 0
DWIDTH 0 0
BBX 12 18 0 -2
BITMAP
0000
0000
0000
0000
0200
0300
0380
02c0
0240
0200
0200
0200
1e00
3e00
3e00
1c00
0000
0000
ENDCHAR
STARTCHAR U+0051
ENCODING 81
SWIDTH 500 0
DWIDTH 0 0
BBX 12 18 0 -2
BITMAP
0000
0000
0000
0000
0f00
1f80
39c0
30c0
30c0
30c0
34c0
36c0
33c0
3980
1fc0
0ec0
0000
0000
ENDCHAR
STARTCHAR U+00b1
ENCODING 177
SWIDTH 500 0
DWIDTH 0 0
BBX 12 18 0 -2
BITMAP
1e00
0700
0180
0000
1f80
1f80
0600
0600
0600
0600
0600
0600
0600
0600
1f80
1f80
0000
0000
ENDCHAR
STARTCHAR U+006e
ENCODING 110
SWIDTH 500 0
DWIDTH 0 0
BBX 12 18 0 -2
BITMAP
0000
0000
0000
0000
0000
0000
0000
3700
3f80
39c0
30c0
30c0
30c0
30c0
30c0
30c0
0000
0000
ENDCHAR
STARTCHAR U+00ae
ENCODING 174
SWIDTH 500 0
DWIDTH 0 0
BBX 12 18 0 -2
BITMAP
0000
0000
0000
1980
1980
0000
0000
30c0
30c0
30c0
30c0
30c0
30c0
39c0
1fc0
0ec0
0000
0000
ENDCHAR
STARTCHAR U+007a
ENCODING 122
SWIDTH 500 0
DWIDTH 0 0
BBX 12 18 0 -2
BITMAP
0000
0000
0000
0000
0000
0000
0000
3fc0
3fc0
01c0
0380
0700
0e00
1c00
3fc0
3fc0
0000
0000
ENDCHAR
STARTCHAR U+002b
ENCODING 43
SWIDTH 500 0
DWIDTH 0 0
BBX 12 18 0 -2
BITMAP
0000
0000
0000
0000
0000
0000
0600
0600
0600
3fc0
3fc0
0600
0600
0600
0000
0000
0000
0000
ENDCHAR
STARTCHAR U+00b0
ENCODING 176
SWIDTH 500 0
DWIDTH 0 0
BBX 12 18 0 -2
BITMAP
1e00
0700
0180
0000
3fc0
3fc0
3000
3000
3000
3f80
3f80
3000
3000
3000
3fc0
3fc0
0000
0000
ENDCHAR
STARTCHAR U+0053
ENCODING 83
SWIDTH 500 0
DWIDTH 0 0
BBX 12 18 0 -2
BITMAP
0000
0000
0000
0000
0f00
1f80
39c0
30c0
3800
1e00
0780
31c0
30c0
39c0
1f80
0f00
0000
0000
ENDCHAR
STARTCHAR U+0061
ENCODING 97
SWIDTH 500 0
DWIDTH 0 0
BBX 12 18 0 -2
BITMAP
0000
0000
0000
0000
0000
0000
0000
1f80
1fc0
00c0
1ec0
3fc0
31c0
31c0
3fc0
1ec0
0000
0000
ENDCHAR
STARTCHAR U+008c
ENCODING 140
SWIDTH 500 0
DWIDTH 0 0
BBX 12 18 0 -2
BITMAP
0000
0000
1ff0
3ff0
6000
6e00
6cf0
6a80
6080
6080
6a80
6cf0
6e00
6000
3ff0
1ff0
0000
0000
ENDCHAR
STARTCHAR U+004b
ENCODING 75
SWIDTH 500 0
DWIDTH 0 0
BBX 12 18 0 -2
BITMAP
0000
0000
0000
0000
30c0
31c0
3380
3700
3e00
3c00
3c00
3e00
3700
3380
31c0
30c0
0000
0000
ENDCHAR
STARTCHAR U+002d
ENCODING 45
SWIDTH 500 0
DWIDTH 0 0
BBX 12 18 0 -2
BITMAP
0000
0000
0000
0000
0000
0000
0000
0000
0000
3fc0
3fc0
0000
0000
0000
0000
0000
0000
0000
ENDCHAR
STARTCHAR U+005b
ENCODING 91
SWIDTH 500 0
DWIDTH 0 0
BBX 12 18 0 -2
BITMAP
0000
0000
0000
7e00
7e00
6000
6000
6000
6000
6000
6000
6000
6000
6000
6000
7e00
7e00
0000
ENDCHAR
STARTCHAR U+0027
ENCODING 39
SWIDTH 500 0
DWIDTH 0 0
BBX 12 18 0 -2
BITMAP
0000
0000
0000
0000
0600
0600
0200
0400
0000
0000
0000
0000
0000
0000
0000
0000
0000
0000
ENDCHAR
STARTCHAR U+00bb
ENCODING 187
SWIDTH 500 0
DWIDTH 0 0
BBX 12 18 0 -2
BITMAP
0cc0
3fc0
3300
0000
1f80
1f80
0600
0600
0600
0600
0600
0600
0600
0600
1f80
1f80
0000
0000
ENDCHAR
STARTCHAR U+0079
ENCODING 121
SWIDTH 500 0
DWIDTH 0 0
BBX 12 18 0 -2
BITMAP
0000
0000
0000
0000
0000
0000
0000
30c0
30c0
30c0
39c0
1fc0
0fc0
00c0
01c0
1f80
1f00
0000
ENDCHAR
STARTCHAR U+00a0
ENCODING 160
SWIDTH 500 0
DWIDTH 0 0
BBX 12 18 0 -2
BITMAP
0000
0000
0600
0f00
1980
0000
0000
1f80
1fc0
00c0
1ec0
3fc0
31c0
31c0
3fc0
1ec0
0000
0000
ENDCHAR
STARTCHAR U+00a1
ENCODING 161
SWIDTH 500 0
DWIDTH 0 0
BBX 12 18 0 -2
BITMAP
0000
0000
0600
0f00
1980
0000
0000
0f00
1f80
39c0
30c0
3fc0
3000
39c0
1f80
0f00
0000
0000
ENDCHAR
STARTCHAR U+00c1
ENCODING 193
SWIDTH 500 0
DWIDTH 0 0
BBX 12 18 0 -2
BITMAP
0000
1980
1980
0000
0f00
1f80
39c0
30c0
30c0
30c0
30c0
30c0
30c0
39c0
1f80
0f00
0000
0000
ENDCHAR
STARTCHAR U+0066
ENCODING 102
SWIDTH 500 0
DWIDTH 0 0
BBX 12 18 0 -2
BITMAP
0000
0000
0000
0000
0380
0780
0600
1f80
1f80
0600
0600
0600
0600
0600
0600
0600
0000
0000
ENDCHAR
STARTCHAR U+0043
ENCODING 67
SWIDTH 500 0
DWIDTH 0 0
BBX 12 18 0 -2
BITMAP
0000
0000
0000
0000
0f00
1f80
39c0
30c0
3000
3000
3000
3000
30c0
39c0
1f80
0f00
0000
0000
ENDCHAR
STARTCHAR U+0025
ENCODING 37
SWIDTH 500 0
DWIDTH 0 0
BBX 12 18 0 -2
BITMAP
0000
0000
0000
3800
7c60
6ce0
7dc0
3b80
0700
0e00
1dc0
3be0
7360
63e0
01c0
0000
0000
0000
ENDCHAR
STARTCHAR U+0016
ENCODING 22
SWIDTH 500 0
DWIDTH 0 0
BBX 12 18 0 -2
BITMAP
0000
1000
2800
2800
2800
2800
2d40
2aa0
eaa0
aaa0
a020
8020
4020
2040
3fc0
3fc0
0000
0000
ENDCHAR
STARTCHAR U+00ba
ENCODING 186
SWIDTH 500 0
DWIDTH 0 0
BBX 12 18 0 -2
BITMAP
0cc0
3fc0
3300
0000
3fc0
3fc0
3000
3000
3000
3f80
3f80
3000
3000
3000
3fc0
3fc0
0000
0000
ENDCHAR
STARTCHAR U+00c5
ENCODING 197
SWIDTH 500 0
DWIDTH 0 0
BBX 12 18 0 -2
BITMAP
0780
0e00
1800
0000
1f80
1f80
0600
0600
0600
0600
0600
0600
0600
0600
1f80
1f80
0000
0000
ENDCHAR
STARTCHAR U+0064
ENCODING 100
SWIDTH 500 0
DWIDTH 0 0
BBX 12 18 0 -2
BITMAP
0000
0000
0000
0000
00c0
00c0
00c0
0ec0
1fc0
39c0
30c0
30c0
30c0
39c0
1fc0
0ec0
0000
0000
ENDCHAR
STARTCHAR U+00a2
ENCODING 162
SWIDTH 500 0
DWIDTH 0 0
BBX 12 18 0 -2
BITMAP
0000
0000
0600
0f00
1980
0000
0000
0e00
0600
0600
0600
0600
0600
0600
0600
0600
0000
0000
ENDCHAR
STARTCHAR U+002e
ENCODING 46
SWIDTH 500 0
DWIDTH 0 0
BBX 12 18 0 -2
BITMAP
0000
0000
0000
0000
0000
0000
0000
0000
0000
0000
0000
0000
0000
0000
0600
0600
0000
0000
ENDCHAR
STARTCHAR U+0007
ENCODING 7
SWIDTH 500 0
DWIDTH 0 0
BBX 12 18 0 -2
BITMAP
0000
0000
ff80
ffc0
80e0
c060
e060
8060
8060
8060
8060
e060
c060
80e0
ffc0
ff80
0000
0000
ENDCHAR
STARTCHAR U+0067
ENCODING 103
SWIDTH 500 0
DWIDTH 0 0
BBX 12 18 0 -2
BITMAP
0000
0000
0000
0000
0000
0000
0ec0
1fc0
31c0
30c0
31c0
1fc0
0ec0
00c0
01c0
1f80
1f00
0000
ENDCHAR
STARTCHAR U+009e
ENCODING 158
SWIDTH 500 0
DWIDTH 0 0
BBX 12 18 0 -2
BITMAP
0000
0000
1e00
0700
0180
0000
0000
0f00
1f80
39c0
30c0
30c0
30c0
39c0
1f80
0f00
0000
0000
ENDCHAR
STARTCHAR U+0033
ENCODING 51
SWIDTH 500 0
DWIDTH 0 0
BBX 12 18 0 -2
BITMAP
0000
0000
0000
0000
0f00
1f80
39c0
30c0
01c0
0780
0780
01c0
30c0
39c0
1f80
0f00
0000
0000
ENDCHAR
STARTCHAR U+0082
ENCODING 130
SWIDTH 500 0
DWIDTH 0 0
BBX 12 18 0 -2
BITMAP
0000
0000
0000
0000
0600
6660
76e0
3fc0
1f80
0f00
0f00
1f80
3fc0
76e0
6660
0600
0000
0000
ENDCHAR
STARTCHAR U+00b7
ENCODING 183
SWIDTH 500 0
DWIDTH 0 0
BBX 12 18 0 -2
BITMAP
0600
0f00
1980
0000
0f00
1f80
39c0
30c0
30c0
30c0
30c0
30c0
30c0
39c0
1f80
0f00
0000
0000
ENDCHAR
STARTCHAR U+0021
ENCODING 33
SWIDTH 500 0
DWIDTH 0 0
BBX 12 18 0 -2
BITMAP
0000
0000
0000
0000
0600
0f00
0f00
0f00
0f00
0f00
0600
0600
0000
0000
0600
0600
0000
0000
ENDCHAR
STARTCHAR U+001b
ENCODING 27
SWIDTH 500 0
DWIDTH 0 0
BBX 12 18 0 -2
BITMAP
0000
0000
0080
0180
0380
0780
0f80
1f80
3f80
1f80
0f80
0780
0380
0180
0080
0000
0000
0000
ENDCHAR
STARTCHAR U+00b9
ENCODING 185
SWIDTH 500 0
DWIDTH 0 0
BBX 12 18 0 -2
BITMAP
0cc0
3fc0
3300
0000
0600
0f00
1f80
39c0
30c0
30c0
3fc0
3fc0
30c0
30c0
30c0
30c0
0000
0000
ENDCHAR
STARTCHAR U+00b5
ENCODING 181
SWIDTH 500 0
DWIDTH 0 0
BBX 12 18 0 -2
BITMAP
0600
0f00
1980
0000
3fc0
3fc0
3000
3000
3000
3f80
3f80
3000
3000
3000
3fc0
3fc0
0000
0000
ENDCHAR
ENDFONT
